<?xml version="1.0" encoding="utf-8"?>
<!-- Generator: Adobe Illustrator 24.0.2, SVG Export Plug-In . SVG Version: 6.00 Build 0)  -->
<svg version="1.1" id="Layer_1" xmlns="http://www.w3.org/2000/svg" xmlns:xlink="http://www.w3.org/1999/xlink" x="0px" y="0px"
	 width="25px" height="33px" viewBox="0 0 25 33" style="enable-background:new 0 0 25 33;" xml:space="preserve">
<style type="text/css">
	.st0{fill:none;}
	.st1{fill:#95A6B1;}
</style>
<rect id="Rectangle_3079" class="st0" width="25" height="33"/>
<g id="Group_9353" transform="translate(-6220.463 2942)">
	<g id="Ellipse_1267">
		<path class="st1" d="M6239.1-2930.2c-2.3,0-4.1-1.8-4.1-4.1s1.8-4.1,4.1-4.1c2.3,0,4.1,1.8,4.1,4.1S6241.3-2930.2,6239.1-2930.2z
			 M6239.1-2936.9c-1.4,0-2.6,1.2-2.6,2.6s1.2,2.6,2.6,2.6s2.6-1.2,2.6-2.6S6240.5-2936.9,6239.1-2936.9z"/>
	</g>
	<g id="Ellipse_1268">
		<path class="st1" d="M6226.4-2920.5c-2.3,0-4.1-1.8-4.1-4.1s1.8-4.1,4.1-4.1s4.1,1.8,4.1,4.1S6228.7-2920.5,6226.4-2920.5z
			 M6226.4-2927.2c-1.4,0-2.6,1.2-2.6,2.6s1.2,2.6,2.6,2.6s2.6-1.2,2.6-2.6S6227.9-2927.2,6226.4-2927.2z"/>
	</g>
	<g id="Ellipse_1269">
		<path class="st1" d="M6239.1-2912.1c-2.3,0-4.1-1.8-4.1-4.1c0-2.3,1.8-4.1,4.1-4.1c2.3,0,4.1,1.8,4.1,4.1
			C6243.2-2913.9,6241.3-2912.1,6239.1-2912.1z M6239.1-2918.7c-1.4,0-2.6,1.2-2.6,2.6s1.2,2.6,2.6,2.6s2.6-1.2,2.6-2.6
			S6240.5-2918.7,6239.1-2918.7z"/>
	</g>
	<g id="Line_1802">
		<path class="st1" d="M6229-2925.9c-0.2,0-0.4-0.1-0.6-0.3c-0.3-0.3-0.2-0.8,0.1-1.1l7.3-5.7c0.3-0.3,0.8-0.2,1.1,0.1
			c0.3,0.3,0.2,0.8-0.1,1.1l-7.3,5.7C6229.3-2926,6229.2-2925.9,6229-2925.9z"/>
	</g>
	<g id="Line_1803">
		<path class="st1" d="M6236.3-2917.3c-0.1,0-0.3,0-0.4-0.1l-7-4.9c-0.3-0.2-0.4-0.7-0.2-1c0.2-0.3,0.7-0.4,1-0.2l7,4.9
			c0.3,0.2,0.4,0.7,0.2,1C6236.8-2917.4,6236.6-2917.3,6236.3-2917.3z"/>
	</g>
</g>
</svg>
