<?xml version="1.0" encoding="utf-8"?>
<!-- Generator: Adobe Illustrator 24.0.2, SVG Export Plug-In . SVG Version: 6.00 Build 0)  -->
<svg version="1.1" id="Layer_1" xmlns="http://www.w3.org/2000/svg" xmlns:xlink="http://www.w3.org/1999/xlink" x="0px" y="0px"
	 width="28px" height="33px" viewBox="0 0 28 33" style="enable-background:new 0 0 28 33;" xml:space="preserve">
<style type="text/css">
	.st0{fill:none;}
	.st1{fill:#95A6B1;}
</style>
<rect id="Rectangle_3080" class="st0" width="28" height="33"/>
<g id="Group_9351" transform="translate(-6271 2943)">
	<g id="Line_1797_1_">
		<path class="st1" d="M6292.4-2932.3h-10.9c-0.4,0-0.8-0.3-0.8-0.8s0.3-0.8,0.8-0.8h10.9c0.4,0,0.8,0.3,0.8,0.8
			S6292.8-2932.3,6292.4-2932.3z"/>
	</g>
	<g id="Line_1798_1_">
		<path class="st1" d="M6292.4-2928.9h-10.9c-0.4,0-0.8-0.3-0.8-0.8s0.3-0.8,0.8-0.8h10.9c0.4,0,0.8,0.3,0.8,0.8
			S6292.8-2928.9,6292.4-2928.9z"/>
	</g>
	<g id="Group_9350_1_">
		<g id="Group_9349_1_">
			<g id="Line_1799_1_">
				<path class="st1" d="M6274.3-2914.8c-0.4,0-0.8-0.3-0.8-0.8v-4.6c0-0.4,0.3-0.8,0.8-0.8s0.8,0.3,0.8,0.8v4.6
					C6275.1-2915.2,6274.8-2914.8,6274.3-2914.8z"/>
			</g>
			<g id="Path_7713_1_">
				<path class="st1" d="M6274.3-2919.4c-0.4,0-0.8-0.3-0.8-0.8v-12.8c0-0.4,0.3-0.8,0.8-0.8h4c0.4,0,0.8,0.3,0.8,0.8
					s-0.3,0.8-0.8,0.8h-3.3v12.1C6275.1-2919.8,6274.8-2919.4,6274.3-2919.4z"/>
			</g>
			<g id="Line_1800_1_">
				<path class="st1" d="M6274.3-2914.8c-0.2,0-0.4-0.1-0.6-0.2c-0.3-0.3-0.3-0.8,0.1-1.1l5.7-5.1c0.3-0.3,0.8-0.3,1.1,0.1
					c0.3,0.3,0.3,0.8-0.1,1.1l-5.7,5.1C6274.7-2914.9,6274.5-2914.8,6274.3-2914.8z"/>
			</g>
			<g id="Path_7714_1_">
				<path class="st1" d="M6286.7-2919.9h-6.6c-0.4,0-0.8-0.3-0.8-0.8s0.3-0.8,0.8-0.8h6.6c1.6,0,3-1,3.7-2.4c0.2-0.4,0.6-0.6,1-0.4
					c0.4,0.2,0.6,0.6,0.4,1C6290.9-2921.2,6288.9-2919.9,6286.7-2919.9z"/>
			</g>
			<g id="Path_7715_1_">
				<path class="st1" d="M6295.7-2919c-0.4,0-0.8-0.3-0.8-0.8v-16.9h-16.3c-0.4,0-0.8-0.3-0.8-0.8s0.3-0.8,0.8-0.8h17.1
					c0.4,0,0.8,0.3,0.8,0.8v17.7C6296.4-2919.3,6296.1-2919,6295.7-2919z"/>
			</g>
			<g id="Line_1801_1_">
				<path class="st1" d="M6295.7-2919c-0.2,0-0.4-0.1-0.5-0.2l-5.7-5.1c-0.3-0.3-0.3-0.8-0.1-1.1c0.3-0.3,0.8-0.3,1.1-0.1l5.7,5.1
					c0.3,0.3,0.3,0.8,0.1,1.1C6296.1-2919.1,6295.9-2919,6295.7-2919z"/>
			</g>
			<g id="Path_7716_1_">
				<path class="st1" d="M6290-2924.1h-6.6c-3,0-5.5-2.5-5.5-5.5v-7.9c0-0.4,0.3-0.8,0.8-0.8s0.8,0.3,0.8,0.8v7.9c0,2.2,1.8,4,4,4
					h6.6c0.4,0,0.8,0.3,0.8,0.8S6290.4-2924.1,6290-2924.1z"/>
			</g>
		</g>
	</g>
</g>
</svg>
