<?xml version="1.0" encoding="utf-8"?>
<!-- Generator: Adobe Illustrator 24.0.2, SVG Export Plug-In . SVG Version: 6.00 Build 0)  -->
<svg version="1.1" id="Layer_1" xmlns="http://www.w3.org/2000/svg" xmlns:xlink="http://www.w3.org/1999/xlink" x="0px" y="0px"
	 width="27px" height="33px" viewBox="0 0 27 33" style="enable-background:new 0 0 27 33;" xml:space="preserve">
<style type="text/css">
	.st0{fill:none;}
	.st1{fill:#95A6B1;}
</style>
<g id="Rectangle_3081">
	<rect class="st0" width="27" height="33"/>
</g>
<g id="Group_9347" transform="translate(-6332.084 2946)">
	<g id="Path_7709">
		<path class="st1" d="M6355.1-2928.7h-2.7c-0.4,0-0.8-0.3-0.8-0.7s0.3-0.8,0.8-0.8h2.7c0.4,0,0.6-0.3,0.6-0.6s-0.3-0.6-0.6-0.6
			h-6.8c-0.2,0-0.4-0.1-0.6-0.2c-0.7-0.4-1-1.2-0.6-1.9l0.8-1.6c0.3-0.6,0.3-1.4-0.2-1.9c0-0.1-0.1-0.1-0.2-0.1
			c-0.3-0.2-0.7-0.1-0.9,0.2l-3.7,5.6c-0.1,0.2-0.4,0.3-0.6,0.3h-2.6c-0.4,0-0.8-0.3-0.8-0.8s0.3-0.8,0.8-0.8h2.2l3.5-5.3
			c0.6-1,2-1.2,2.9-0.6c0.2,0.1,0.4,0.3,0.5,0.5c0.8,1,0.9,2.4,0.3,3.5l-0.8,1.5l6.6,0c1.2,0,2.1,1,2.1,2.1
			C6357.2-2929.6,6356.3-2928.7,6355.1-2928.7z"/>
	</g>
	<g id="Path_7710">
		<path class="st1" d="M6354.1-2925.9h-3.8c-0.4,0-0.8-0.3-0.8-0.8s0.3-0.8,0.8-0.8h3.8c0.4,0,0.6-0.3,0.6-0.6
			c0-0.4-0.3-0.6-0.6-0.6h-2.1c-0.4,0-0.8-0.3-0.8-0.8s0.3-0.8,0.8-0.8h2.1c1.2,0,2.1,1,2.1,2.1
			C6356.3-2926.9,6355.3-2925.9,6354.1-2925.9z"/>
	</g>
	<g id="Path_7711">
		<path class="st1" d="M6353.1-2923.1h-3.8c-0.4,0-0.8-0.3-0.8-0.8s0.3-0.8,0.8-0.8h3.8c0.4,0,0.6-0.3,0.6-0.6
			c0-0.4-0.3-0.6-0.6-0.6h-2.7c-0.4,0-0.8-0.3-0.8-0.8s0.3-0.8,0.8-0.8h2.7c1.2,0,2.1,1,2.1,2.1
			C6355.2-2924.1,6354.3-2923.1,6353.1-2923.1z"/>
	</g>
	<g id="Path_7712">
		<path class="st1" d="M6352.4-2920.4h-6.8c-0.1,0-0.1,0-0.2,0l-3-0.7h-2.5c-0.4,0-0.8-0.3-0.8-0.8s0.3-0.8,0.8-0.8h2.6
			c0.1,0,0.1,0,0.2,0l3,0.7h6.7c0.4,0,0.6-0.3,0.6-0.6c0-0.4-0.3-0.6-0.6-0.6h-3c-0.4,0-0.8-0.3-0.8-0.8s0.3-0.8,0.8-0.8h3
			c1.2,0,2.1,1,2.1,2.1C6354.5-2921.3,6353.5-2920.4,6352.4-2920.4z"/>
	</g>
	<g id="Rectangle_3057">
		<path class="st1" d="M6339.8-2919.9h-4.6c-0.4,0-0.8-0.3-0.8-0.8v-12.2c0-0.4,0.3-0.8,0.8-0.8h4.6c0.4,0,0.8,0.3,0.8,0.8v12.2
			C6340.6-2920.3,6340.2-2919.9,6339.8-2919.9z M6335.9-2921.4h3.1v-10.7h-3.1V-2921.4z"/>
	</g>
</g>
</svg>
